<?xml version="1.0" encoding="utf-8"?><!-- Uploaded to: SVG Repo, www.svgrepo.com, Generator: SVG Repo Mixer Tools -->
<svg fill="#000000" width="800px" height="800px" viewBox="0 0 24 24" id="add-user-circle-left" data-name="Flat Color" xmlns="http://www.w3.org/2000/svg" class="icon flat-color"><circle id="primary" cx="12" cy="12" r="10" style="fill: rgb(0, 0, 0);"></circle><path id="secondary" d="M8.88,14.87A4.94,4.94,0,0,1,7,11a1,1,0,0,1,2,0,3,3,0,1,0,3-3,4.07,4.07,0,0,0-.61.06,1,1,0,1,1-.32-2A6.74,6.74,0,0,1,12,6a5,5,0,0,1,5,5,4.94,4.94,0,0,1-1.88,3.87A6,6,0,0,1,18,19.4a1,1,0,0,1-.44.93,10,10,0,0,1-11.06,0A1,1,0,0,1,6,19.4,6,6,0,0,1,8.88,14.87ZM2,7A1,1,0,0,0,3,8H4V9A1,1,0,0,0,6,9V8H7A1,1,0,0,0,7,6H6V5A1,1,0,0,0,4,5V6H3A1,1,0,0,0,2,7Z" style="fill: rgb(44, 169, 188);"></path></svg>